<svg width="24" height="18" viewBox="0 0 24 18" fill="none" xmlns="http://www.w3.org/2000/svg">
<path fill-rule="evenodd" clip-rule="evenodd" d="M8.81802 17.4853L0.863068 9.5303C0.722416 9.38965 0.643398 9.19889 0.643398 8.99997C0.643398 8.80106 0.722416 8.6103 0.863068 8.46964L8.81802 0.514693C9.11091 0.2218 9.58579 0.2218 9.87868 0.514693C10.1716 0.807586 10.1716 1.28246 9.87868 1.57535L3.20406 8.24997H22.6066C23.0208 8.24997 23.3566 8.58576 23.3566 8.99997C23.3566 9.41419 23.0208 9.74997 22.6066 9.74998L3.20406 9.74998L9.87868 16.4246C10.1716 16.7175 10.1716 17.1924 9.87868 17.4853C9.58579 17.7781 9.11091 17.7781 8.81802 17.4853Z" fill="black"/>
</svg>
