<svg width="24" height="23" viewBox="0 0 24 23" fill="none" xmlns="http://www.w3.org/2000/svg">
<path d="M5.45309 7.45312H0.296875V22.9373H5.45309V7.45312Z" fill="#2C2C2C"/>
<path d="M22.3753 8.86736C21.2921 7.68503 19.8596 7.09375 18.0785 7.09375C17.4223 7.09375 16.8257 7.17447 16.2892 7.33603C15.7528 7.49748 15.2998 7.72399 14.9299 8.01569C14.5602 8.30739 14.2657 8.57818 14.0472 8.82807C13.8393 9.06542 13.636 9.34191 13.4377 9.65468V7.45287H8.29688L8.31264 8.20297C8.3232 8.70313 8.3284 10.2447 8.3284 12.8279C8.3284 15.4113 8.318 18.781 8.29709 22.9373H13.4377V14.2965C13.4377 13.7654 13.4947 13.3436 13.6095 13.0308C13.8284 12.4993 14.1588 12.0543 14.6018 11.6951C15.0447 11.3354 15.594 11.1557 16.2504 11.1557C17.146 11.1557 17.8051 11.4656 18.227 12.0854C18.6488 12.7051 18.8597 13.562 18.8597 14.6557V22.9368H24.0003V14.0624C24 11.7809 23.4587 10.0493 22.3753 8.86736Z" fill="#2C2C2C"/>
<path d="M2.9062 0C2.04172 0 1.34126 0.252787 0.804659 0.757869C0.26811 1.26306 0 1.90086 0 2.67186C0 3.43208 0.260394 4.06769 0.781236 4.57797C1.30191 5.0883 1.98951 5.34361 2.84364 5.34361H2.87489C3.74999 5.34361 4.45581 5.08852 4.99219 4.57797C5.52858 4.06769 5.79154 3.4323 5.7812 2.67186C5.7708 1.90091 5.50499 1.26306 4.98431 0.757869C4.46369 0.252568 3.77073 0 2.9062 0Z" fill="#2C2C2C"/>
</svg>
